<svg width="1280" height="84" viewBox="0 0 1280 84" fill="none" xmlns="http://www.w3.org/2000/svg">
<g clip-path="url(#clip0_991_80048)">
<rect width="1281" height="84" fill="#FFC244"/>
<g opacity="0.8">
<circle cx="323.802" cy="9.05283" r="2.52641" fill="white"/>
<circle cx="260.641" cy="76.0028" r="2.52641" fill="white"/>
<circle cx="42.1065" cy="11.5792" r="2.52641" fill="white"/>
<circle cx="34.5274" cy="76.0028" r="2.52641" fill="white"/>
<path d="M468.503 58.3194V59.8767" stroke="white" stroke-width="0.712645" stroke-linecap="round"/>
<path d="M468.503 65.5878V67.1451" stroke="white" stroke-width="0.712645" stroke-linecap="round"/>
<path d="M472.847 62.6587H471.289" stroke="white" stroke-width="0.712645" stroke-linecap="round"/>
<path d="M465.576 62.6587H464.018" stroke="white" stroke-width="0.712645" stroke-linecap="round"/>
<path d="M471.575 59.5914L470.474 60.6926" stroke="white" stroke-width="0.712645" stroke-linecap="round"/>
<path d="M466.434 64.7281L465.332 65.8293" stroke="white" stroke-width="0.712645" stroke-linecap="round"/>
<path d="M471.574 65.7298L470.472 64.6286" stroke="white" stroke-width="0.712645" stroke-linecap="round"/>
<path d="M466.433 60.5931L465.331 59.4919" stroke="white" stroke-width="0.712645" stroke-linecap="round"/>
<path d="M289.128 5.26469V6.82203" stroke="white" stroke-width="0.712645" stroke-linecap="round"/>
<path d="M289.128 12.5331V14.0904" stroke="white" stroke-width="0.712645" stroke-linecap="round"/>
<path d="M293.471 9.60403H291.913" stroke="white" stroke-width="0.712645" stroke-linecap="round"/>
<path d="M286.2 9.60403H284.642" stroke="white" stroke-width="0.712645" stroke-linecap="round"/>
<path d="M292.2 6.53669L291.098 7.63789" stroke="white" stroke-width="0.712645" stroke-linecap="round"/>
<path d="M287.058 11.6734L285.956 12.7746" stroke="white" stroke-width="0.712645" stroke-linecap="round"/>
<path d="M292.199 12.6751L291.097 11.5739" stroke="white" stroke-width="0.712645" stroke-linecap="round"/>
<path d="M287.057 7.53836L285.955 6.43716" stroke="white" stroke-width="0.712645" stroke-linecap="round"/>
<path d="M27.6442 19.1568V20.7141" stroke="white" stroke-width="0.712645" stroke-linecap="round"/>
<path d="M27.6442 26.4252V27.9825" stroke="white" stroke-width="0.712645" stroke-linecap="round"/>
<path d="M31.9878 23.4962H30.4297" stroke="white" stroke-width="0.712645" stroke-linecap="round"/>
<path d="M24.7168 23.4962H23.1587" stroke="white" stroke-width="0.712645" stroke-linecap="round"/>
<path d="M30.7164 20.4288L29.6147 21.53" stroke="white" stroke-width="0.712645" stroke-linecap="round"/>
<path d="M25.5748 25.5655L24.4731 26.6667" stroke="white" stroke-width="0.712645" stroke-linecap="round"/>
<path d="M30.7152 26.5672L29.6135 25.466" stroke="white" stroke-width="0.712645" stroke-linecap="round"/>
<path d="M25.5736 21.4305L24.4719 20.3293" stroke="white" stroke-width="0.712645" stroke-linecap="round"/>
<path fill-rule="evenodd" clip-rule="evenodd" d="M312.001 10.5092L306.498 15.9943L298.731 15.8141L304.216 21.317L304.035 29.0846L309.538 23.5996L317.306 23.7797L311.821 18.2768L312.001 10.5092Z" fill="white"/>
<path fill-rule="evenodd" clip-rule="evenodd" d="M238.215 60.1758L240.453 65.3177L238.287 70.4904L243.429 68.2527L248.602 70.4183L246.364 65.2763L248.53 60.1036L243.388 62.3414L238.215 60.1758Z" fill="white"/>
<path fill-rule="evenodd" clip-rule="evenodd" d="M448.928 68.5643L451.166 73.7062L449 78.8789L454.142 76.6412L459.315 78.8068L457.077 73.6648L459.243 68.4921L454.101 70.7299L448.928 68.5643Z" fill="white"/>
<path fill-rule="evenodd" clip-rule="evenodd" d="M100.282 9.19353L102.52 14.3355L100.355 19.5082L105.496 17.2704L110.669 19.436L108.431 14.2941L110.597 9.12139L105.455 11.3591L100.282 9.19353Z" fill="white"/>
<path fill-rule="evenodd" clip-rule="evenodd" d="M13.1213 63.5114L15.359 68.6533L13.1934 73.8261L18.3353 71.5883L23.508 73.7539L21.2703 68.612L23.4359 63.4393L18.294 65.677L13.1213 63.5114Z" fill="white"/>
</g>
<g opacity="0.8">
<circle cx="803.802" cy="9.05283" r="2.52641" fill="white"/>
<circle cx="740.641" cy="76.0028" r="2.52641" fill="white"/>
<circle cx="522.107" cy="11.5792" r="2.52641" fill="white"/>
<circle cx="514.527" cy="76.0028" r="2.52641" fill="white"/>
<path d="M948.503 58.3194V59.8767" stroke="white" stroke-width="0.712645" stroke-linecap="round"/>
<path d="M948.503 65.5878V67.1451" stroke="white" stroke-width="0.712645" stroke-linecap="round"/>
<path d="M952.847 62.6587H951.289" stroke="white" stroke-width="0.712645" stroke-linecap="round"/>
<path d="M945.576 62.6587H944.018" stroke="white" stroke-width="0.712645" stroke-linecap="round"/>
<path d="M951.575 59.5914L950.474 60.6926" stroke="white" stroke-width="0.712645" stroke-linecap="round"/>
<path d="M946.434 64.7281L945.332 65.8293" stroke="white" stroke-width="0.712645" stroke-linecap="round"/>
<path d="M951.574 65.7298L950.472 64.6286" stroke="white" stroke-width="0.712645" stroke-linecap="round"/>
<path d="M946.433 60.5931L945.331 59.4919" stroke="white" stroke-width="0.712645" stroke-linecap="round"/>
<path d="M769.128 5.26469V6.82203" stroke="white" stroke-width="0.712645" stroke-linecap="round"/>
<path d="M769.128 12.5331V14.0904" stroke="white" stroke-width="0.712645" stroke-linecap="round"/>
<path d="M773.471 9.60403H771.913" stroke="white" stroke-width="0.712645" stroke-linecap="round"/>
<path d="M766.2 9.60403H764.642" stroke="white" stroke-width="0.712645" stroke-linecap="round"/>
<path d="M772.2 6.53669L771.098 7.63789" stroke="white" stroke-width="0.712645" stroke-linecap="round"/>
<path d="M767.058 11.6734L765.956 12.7746" stroke="white" stroke-width="0.712645" stroke-linecap="round"/>
<path d="M772.199 12.6751L771.097 11.5739" stroke="white" stroke-width="0.712645" stroke-linecap="round"/>
<path d="M767.057 7.53836L765.955 6.43716" stroke="white" stroke-width="0.712645" stroke-linecap="round"/>
<path d="M507.644 19.1568V20.7141" stroke="white" stroke-width="0.712645" stroke-linecap="round"/>
<path d="M507.644 26.4252V27.9825" stroke="white" stroke-width="0.712645" stroke-linecap="round"/>
<path d="M511.988 23.4962H510.43" stroke="white" stroke-width="0.712645" stroke-linecap="round"/>
<path d="M504.717 23.4962H503.159" stroke="white" stroke-width="0.712645" stroke-linecap="round"/>
<path d="M510.716 20.4288L509.615 21.53" stroke="white" stroke-width="0.712645" stroke-linecap="round"/>
<path d="M505.575 25.5655L504.473 26.6667" stroke="white" stroke-width="0.712645" stroke-linecap="round"/>
<path d="M510.715 26.5672L509.614 25.466" stroke="white" stroke-width="0.712645" stroke-linecap="round"/>
<path d="M505.574 21.4305L504.472 20.3293" stroke="white" stroke-width="0.712645" stroke-linecap="round"/>
<path fill-rule="evenodd" clip-rule="evenodd" d="M792.001 10.5092L786.498 15.9943L778.731 15.8141L784.216 21.317L784.035 29.0846L789.538 23.5996L797.306 23.7797L791.821 18.2768L792.001 10.5092Z" fill="white"/>
<path fill-rule="evenodd" clip-rule="evenodd" d="M718.215 60.1758L720.453 65.3177L718.287 70.4904L723.429 68.2527L728.602 70.4183L726.364 65.2763L728.53 60.1036L723.388 62.3414L718.215 60.1758Z" fill="white"/>
<path fill-rule="evenodd" clip-rule="evenodd" d="M928.928 68.5643L931.166 73.7062L929 78.8789L934.142 76.6412L939.315 78.8068L937.077 73.6648L939.243 68.4921L934.101 70.7299L928.928 68.5643Z" fill="white"/>
<path fill-rule="evenodd" clip-rule="evenodd" d="M580.282 9.19353L582.52 14.3355L580.355 19.5082L585.496 17.2704L590.669 19.436L588.431 14.2941L590.597 9.12139L585.455 11.3591L580.282 9.19353Z" fill="white"/>
<path fill-rule="evenodd" clip-rule="evenodd" d="M493.121 63.5114L495.359 68.6533L493.193 73.8261L498.335 71.5883L503.508 73.7539L501.27 68.612L503.436 63.4393L498.294 65.677L493.121 63.5114Z" fill="white"/>
</g>
<g opacity="0.8">
<circle cx="1220.64" cy="76.0028" r="2.52641" fill="white"/>
<circle cx="1002.11" cy="11.5792" r="2.52641" fill="white"/>
<circle cx="994.527" cy="76.0028" r="2.52641" fill="white"/>
<path d="M1249.13 5.26469V6.82203" stroke="white" stroke-width="0.712645" stroke-linecap="round"/>
<path d="M1249.13 12.5331V14.0904" stroke="white" stroke-width="0.712645" stroke-linecap="round"/>
<path d="M1253.47 9.60403H1251.91" stroke="white" stroke-width="0.712645" stroke-linecap="round"/>
<path d="M1246.2 9.60403H1244.64" stroke="white" stroke-width="0.712645" stroke-linecap="round"/>
<path d="M1252.2 6.53669L1251.1 7.63789" stroke="white" stroke-width="0.712645" stroke-linecap="round"/>
<path d="M1247.06 11.6734L1245.96 12.7746" stroke="white" stroke-width="0.712645" stroke-linecap="round"/>
<path d="M1252.2 12.6751L1251.1 11.5739" stroke="white" stroke-width="0.712645" stroke-linecap="round"/>
<path d="M1247.06 7.53836L1245.96 6.43716" stroke="white" stroke-width="0.712645" stroke-linecap="round"/>
<path d="M987.644 19.1568V20.7141" stroke="white" stroke-width="0.712645" stroke-linecap="round"/>
<path d="M987.644 26.4252V27.9825" stroke="white" stroke-width="0.712645" stroke-linecap="round"/>
<path d="M991.988 23.4962H990.43" stroke="white" stroke-width="0.712645" stroke-linecap="round"/>
<path d="M984.717 23.4962H983.159" stroke="white" stroke-width="0.712645" stroke-linecap="round"/>
<path d="M990.716 20.4288L989.615 21.53" stroke="white" stroke-width="0.712645" stroke-linecap="round"/>
<path d="M985.575 25.5655L984.473 26.6667" stroke="white" stroke-width="0.712645" stroke-linecap="round"/>
<path d="M990.715 26.5672L989.614 25.466" stroke="white" stroke-width="0.712645" stroke-linecap="round"/>
<path d="M985.574 21.4305L984.472 20.3293" stroke="white" stroke-width="0.712645" stroke-linecap="round"/>
<path fill-rule="evenodd" clip-rule="evenodd" d="M1272 10.5092L1266.5 15.9943L1258.73 15.8141L1264.22 21.317L1264.04 29.0846L1269.54 23.5996L1277.31 23.7797L1271.82 18.2768L1272 10.5092Z" fill="white"/>
<path fill-rule="evenodd" clip-rule="evenodd" d="M1198.22 60.1758L1200.45 65.3177L1198.29 70.4904L1203.43 68.2527L1208.6 70.4183L1206.36 65.2763L1208.53 60.1036L1203.39 62.3414L1198.22 60.1758Z" fill="white"/>
<path fill-rule="evenodd" clip-rule="evenodd" d="M1060.28 9.19353L1062.52 14.3355L1060.35 19.5082L1065.5 17.2704L1070.67 19.436L1068.43 14.2941L1070.6 9.12139L1065.46 11.3591L1060.28 9.19353Z" fill="white"/>
<path fill-rule="evenodd" clip-rule="evenodd" d="M973.121 63.5114L975.359 68.6533L973.193 73.8261L978.335 71.5883L983.508 73.7539L981.27 68.612L983.436 63.4393L978.294 65.677L973.121 63.5114Z" fill="white"/>
</g>
</g>
<defs>
<clipPath id="clip0_991_80048">
<rect width="1281" height="84" fill="white"/>
</clipPath>
</defs>
</svg>
